HIERARCHY
ROOT hips
{
	OFFSET -0.003675 0.299928 -0.021708
	CHANNELS 6 Xposition Yposition Zposition Xrotation Yrotation Zrotation
	JOINT LowerBack
	{
		OFFSET 0.000919 0.177588 0.009275
		CHANNELS 3 Xrotation Yrotation Zrotation
		JOINT spine
		{
			OFFSET 0.000919 0.177588 0.009275
			CHANNELS 3 Xrotation Yrotation Zrotation
			JOINT chest
			{
				OFFSET 0.000456 0.100015 0.004638
				CHANNELS 3 Xrotation Yrotation Zrotation
				JOINT neck
				{
					OFFSET 0.000456 0.100015 0.004638
					CHANNELS 3 Xrotation Yrotation Zrotation
					JOINT head
					{
						OFFSET 0.000924 0.155147 0.009274
						CHANNELS 6 Xposition Yposition Zposition Xrotation Yrotation Zrotation
						End Site
						{
							OFFSET 0.000000 0.153400 0.000000
						}
					}
				}
				JOINT shoulder.L
				{
					OFFSET 0.019937 0.078966 0.057518
					CHANNELS 6 Xposition Yposition Zposition Yrotation Xrotation Zrotation
					JOINT upper_arm.L
					{
						OFFSET 0.177024 -0.020465 -0.095062
						CHANNELS 6 Xposition Yposition Zposition Xrotation Yrotation Zrotation
						JOINT forearm.L
						{
							OFFSET 0.247100 -0.135500 -0.061800
							CHANNELS 3 Xrotation Yrotation Zrotation
							JOINT hand.L
							{
								OFFSET 0.217000 -0.143000 0.039300
								CHANNELS 3 Xrotation Yrotation Zrotation
								JOINT palm.01.L
								{
									OFFSET 0.021770 -0.038291 0.012954
									CHANNELS 6 Xposition Yposition Zposition Yrotation Xrotation Zrotation
									JOINT f_index.01.L
									{
										OFFSET 0.053215 -0.044137 0.008236
										CHANNELS 3 Xrotation Yrotation Zrotation
										JOINT f_index.02.L
										{
											OFFSET 0.036108 -0.024723 -0.010656
											CHANNELS 3 Xrotation Yrotation Zrotation
											JOINT f_index.03.L
											{
												OFFSET 0.021342 -0.014948 -0.010846
												CHANNELS 3 Xrotation Yrotation Zrotation
												End Site
												{
													OFFSET 0.015600 -0.009860 -0.013421
												}
											}
										}
									}
									JOINT thumb.01.L
									{
										OFFSET -0.009090 -0.002348 -0.024223
										CHANNELS 6 Xposition Yposition Zposition Xrotation Yrotation Zrotation
										JOINT thumb.02.L
										{
											OFFSET 0.019713 -0.035076 -0.011120
											CHANNELS 3 Xrotation Yrotation Zrotation
											JOINT thumb.03.L
											{
												OFFSET 0.024877 -0.021748 -0.005176
												CHANNELS 3 Xrotation Yrotation Zrotation
												End Site
												{
													OFFSET 0.016125 -0.013029 -0.001569
												}
											}
										}
									}
								}
								JOINT palm.02.L
								{
									OFFSET 0.032823 -0.025104 0.012281
									CHANNELS 6 Xposition Yposition Zposition Yrotation Xrotation Zrotation
									JOINT f_middle.01.L
									{
										OFFSET 0.055723 -0.038469 0.008037
										CHANNELS 3 Xrotation Yrotation Zrotation
										JOINT f_middle.02.L
										{
											OFFSET 0.038167 -0.027473 -0.015582
											CHANNELS 3 Xrotation Yrotation Zrotation
											JOINT f_middle.03.L
											{
												OFFSET 0.021707 -0.016587 -0.017037
												CHANNELS 3 Xrotation Yrotation Zrotation
												End Site
												{
													OFFSET 0.014112 -0.010584 -0.014294
												}
											}
										}
									}
								}
								JOINT palm.03.L
								{
									OFFSET 0.039230 -0.011402 0.008390
									CHANNELS 6 Xposition Yposition Zposition Yrotation Xrotation Zrotation
									JOINT f_ring.01.L
									{
										OFFSET 0.061796 -0.031470 0.007910
										CHANNELS 3 Xrotation Yrotation Zrotation
										JOINT f_ring.02.L
										{
											OFFSET 0.033092 -0.023401 -0.019127
											CHANNELS 3 Xrotation Yrotation Zrotation
											JOINT f_ring.03.L
											{
												OFFSET 0.021392 -0.015362 -0.017824
												CHANNELS 3 Xrotation Yrotation Zrotation
												End Site
												{
													OFFSET 0.008670 -0.007297 -0.014686
												}
											}
										}
									}
								}
								JOINT palm.04.L
								{
									OFFSET 0.043417 0.002450 0.002889
									CHANNELS 6 Xposition Yposition Zposition Yrotation Xrotation Zrotation
									JOINT f_pinky.01.L
									{
										OFFSET 0.069986 -0.026156 0.003627
										CHANNELS 3 Xrotation Yrotation Zrotation
										JOINT f_pinky.02.L
										{
											OFFSET 0.018520 -0.012813 -0.016429
											CHANNELS 3 Xrotation Yrotation Zrotation
											JOINT f_pinky.03.L
											{
												OFFSET 0.013822 -0.009796 -0.014947
												CHANNELS 3 Xrotation Yrotation Zrotation
												End Site
												{
													OFFSET 0.007238 -0.006103 -0.011657
												}
											}
										}
									}
								}
							}
						}
					}
				}
				JOINT shoulder.R
				{
					OFFSET -0.016662 0.078957 0.057696
					CHANNELS 6 Xposition Yposition Zposition Yrotation Xrotation Zrotation
					JOINT upper_arm.R
					{
						OFFSET -0.176972 -0.020537 -0.095144
						CHANNELS 6 Xposition Yposition Zposition Xrotation Yrotation Zrotation
						JOINT forearm.R
						{
							OFFSET -0.247100 -0.135500 -0.061800
							CHANNELS 3 Xrotation Yrotation Zrotation
							JOINT hand.R
							{
								OFFSET -0.217000 -0.143000 0.039300
								CHANNELS 3 Xrotation Yrotation Zrotation
								JOINT palm.01.R
								{
									OFFSET -0.021773 -0.038278 0.012988
									CHANNELS 6 Xposition Yposition Zposition Yrotation Xrotation Zrotation
									JOINT f_index.01.R
									{
										OFFSET -0.053212 -0.044139 0.008249
										CHANNELS 3 Xrotation Yrotation Zrotation
										JOINT f_index.02.R
										{
											OFFSET -0.036049 -0.024835 -0.010634
											CHANNELS 3 Xrotation Yrotation Zrotation
											JOINT f_index.03.R
											{
												OFFSET -0.021371 -0.014881 -0.010866
												CHANNELS 3 Xrotation Yrotation Zrotation
												End Site
												{
													OFFSET -0.015584 -0.009883 -0.013422
												}
											}
										}
									}
									JOINT thumb.01.R
									{
										OFFSET 0.009113 -0.002381 -0.024211
										CHANNELS 6 Xposition Yposition Zposition Xrotation Yrotation Zrotation
										JOINT thumb.02.R
										{
											OFFSET -0.019694 -0.035097 -0.011088
											CHANNELS 3 Xrotation Yrotation Zrotation
											JOINT thumb.03.R
											{
												OFFSET -0.024867 -0.021762 -0.005168
												CHANNELS 3 Xrotation Yrotation Zrotation
												End Site
												{
													OFFSET -0.016120 -0.013036 -0.001565
												}
											}
										}
									}
								}
								JOINT palm.02.R
								{
									OFFSET -0.032828 -0.025095 0.012286
									CHANNELS 6 Xposition Yposition Zposition Yrotation Xrotation Zrotation
									JOINT f_middle.01.R
									{
										OFFSET -0.055721 -0.038472 0.008040
										CHANNELS 3 Xrotation Yrotation Zrotation
										JOINT f_middle.02.R
										{
											OFFSET -0.038101 -0.027593 -0.015557
											CHANNELS 3 Xrotation Yrotation Zrotation
											JOINT f_middle.03.R
											{
												OFFSET -0.021730 -0.016530 -0.017054
												CHANNELS 3 Xrotation Yrotation Zrotation
												End Site
												{
													OFFSET -0.014096 -0.010608 -0.014293
												}
											}
										}
									}
								}
								JOINT palm.03.R
								{
									OFFSET -0.039192 -0.011488 0.008390
									CHANNELS 6 Xposition Yposition Zposition Yrotation Xrotation Zrotation
									JOINT f_ring.01.R
									{
										OFFSET -0.061839 -0.031387 0.007876
										CHANNELS 3 Xrotation Yrotation Zrotation
										JOINT f_ring.02.R
										{
											OFFSET -0.033068 -0.023437 -0.019125
											CHANNELS 3 Xrotation Yrotation Zrotation
											JOINT f_ring.03.R
											{
												OFFSET -0.021371 -0.015393 -0.017822
												CHANNELS 3 Xrotation Yrotation Zrotation
												End Site
												{
													OFFSET -0.008654 -0.007321 -0.014684
												}
											}
										}
									}
								}
								JOINT palm.04.R
								{
									OFFSET -0.043421 0.002443 0.002845
									CHANNELS 6 Xposition Yposition Zposition Yrotation Xrotation Zrotation
									JOINT f_pinky.01.R
									{
										OFFSET -0.069983 -0.026169 0.003599
										CHANNELS 3 Xrotation Yrotation Zrotation
										JOINT f_pinky.02.R
										{
											OFFSET -0.018501 -0.012842 -0.016428
											CHANNELS 3 Xrotation Yrotation Zrotation
											JOINT f_pinky.03.R
											{
												OFFSET -0.013806 -0.009821 -0.014946
												CHANNELS 3 Xrotation Yrotation Zrotation
												End Site
												{
													OFFSET -0.007226 -0.006121 -0.011655
												}
											}
										}
									}
								}
							}
						}
					}
				}
			}
		}
	}
	JOINT pelvis.L
	{
		OFFSET 0.000000 0.000000 0.000000
		CHANNELS 6 Xposition Yposition Zposition Xrotation Yrotation Zrotation
		JOINT thigh.L
		{
			OFFSET 0.101675 0.001054 -0.000000
			CHANNELS 3 Xrotation Yrotation Zrotation
			JOINT shin.L
			{
				OFFSET 0.000000 -0.534800 0.041000
				CHANNELS 3 Xrotation Yrotation Zrotation
				JOINT foot.L
				{
					OFFSET 0.000000 -0.452000 -0.044800
					CHANNELS 3 Xrotation Yrotation Zrotation
					JOINT toe.L
					{
						OFFSET -0.000000 -0.068500 0.109600
						CHANNELS 3 Xrotation Yrotation Zrotation
						End Site
						{
							OFFSET -0.000000 0.000000 0.067200
						}
					}
				}
				JOINT heel.L
				{
					OFFSET 0.000000 -0.452000 -0.044800
					CHANNELS 3 Xrotation Yrotation Zrotation
					JOINT heel.02.L
					{
						OFFSET -0.038000 -0.085200 0.016200
						CHANNELS 6 Xposition Yposition Zposition Xrotation Yrotation Zrotation
						End Site
						{
							OFFSET 0.080000 -0.000000 0.000000
						}
					}
				}
			}
		}
	}
	JOINT pelvis.R
	{
		OFFSET 0.000000 0.000000 0.000000
		CHANNELS 6 Xposition Yposition Zposition Xrotation Yrotation Zrotation
		JOINT thigh.R
		{
			OFFSET -0.094325 0.001054 0.000000
			CHANNELS 3 Xrotation Yrotation Zrotation
			JOINT shin.R
			{
				OFFSET 0.000000 -0.534800 0.041000
				CHANNELS 3 Xrotation Yrotation Zrotation
				JOINT foot.R
				{
					OFFSET 0.000000 -0.452000 -0.044800
					CHANNELS 3 Xrotation Yrotation Zrotation
					JOINT toe.R
					{
						OFFSET -0.000000 -0.068500 0.109600
						CHANNELS 3 Xrotation Yrotation Zrotation
						End Site
						{
							OFFSET -0.000000 0.000000 0.067200
						}
					}
				}
				JOINT heel.R
				{
					OFFSET 0.000000 -0.452000 -0.044800
					CHANNELS 3 Xrotation Yrotation Zrotation
					JOINT heel.02.R
					{
						OFFSET 0.038000 -0.085200 0.016200
						CHANNELS 6 Xposition Yposition Zposition Xrotation Yrotation Zrotation
						End Site
						{
							OFFSET -0.080000 0.000000 -0.000000
						}
					}
				}
			}
		}
	}
}
MOTION
Frames: 4
Frame Time: 0.041667
-0.010270 0.205790 -0.001454 58.212985 12.486122 86.853696 -0.000001 0.000001 -0.000001 -0.000000 -0.000001 0.000000 -0.000001 0.000000 -0.000001 -0.000001 0.000002 -0.000000 0.000924 0.155147 0.009274 -12.917460 0.047444 5.450470 0.019937 0.078966 0.057518 -5.946108 5.849652 52.954245 0.177025 -0.020465 -0.095062 -81.165788 -22.223402 -37.862993 -0.357659 -27.347015 35.708188 -0.000001 -0.000001 0.000001 0.021770 -0.038291 0.012954 -0.000001 -0.000000 -0.000002 -0.000001 -0.000001 0.000001 0.000004 0.000003 0.000003 0.000003 -0.000000 -0.000000 -0.009090 -0.002348 -0.024223 0.000002 -0.000002 -0.000001 0.000000 -0.000000 0.000001 -0.000001 0.000002 -0.000001 0.032823 -0.025104 0.012281 -0.000003 0.000001 0.000005 0.000000 0.000002 0.000002 -0.000003 0.000002 0.000007 0.000001 -0.000002 0.000002 0.039230 -0.011402 0.008390 -0.000001 -0.000001 0.000001 -0.000002 0.000003 0.000005 0.000001 0.000001 0.000003 0.000001 -0.000002 0.000003 0.043417 0.002450 0.002889 -0.000002 -0.000001 -0.000005 -0.000003 -0.000004 -0.000004 -0.000001 0.000004 -0.000002 0.000001 0.000000 -0.000002 -0.016662 0.078956 0.057696 0.764462 3.778052 -39.836395 -0.176972 -0.020537 -0.095144 -68.005502 7.383625 37.610901 -18.161961 48.020881 343.449697 0.000000 0.000002 0.000002 -0.021773 -0.038278 0.012988 0.000004 -0.000003 -0.000002 -0.000001 0.000002 -0.000003 -0.000002 -0.000002 -0.000001 0.000002 -0.000003 -0.000000 0.009113 -0.002381 -0.024211 -0.000003 -0.000001 -0.000005 0.000001 -0.000001 0.000002 -0.000000 -0.000001 -0.000004 -0.032828 -0.025095 0.012286 0.000004 -0.000000 -0.000001 0.000002 0.000005 -0.000003 0.000002 -0.000003 -0.000001 -0.000006 0.000007 -0.000002 -0.039192 -0.011488 0.008390 0.000005 0.000004 0.000001 -0.000001 0.000005 -0.000005 -0.000001 -0.000001 0.000002 0.000000 -0.000000 -0.000006 -0.043421 0.002443 0.002845 0.000003 0.000001 0.000002 -0.000000 0.000000 -0.000001 -0.000003 -0.000003 -0.000003 -0.000002 0.000001 -0.000000 -0.000000 0.000000 -0.000000 -2.053041 1.710689 -19.625939 9.478691 -0.635285 -8.599220 18.637766 -0.154972 1.565793 -0.000003 0.000003 0.000000 0.000004 -0.000001 0.000000 -0.000002 -0.000000 -0.000000 -0.038000 -0.085200 0.016200 -0.000003 0.000002 0.000001 -0.000000 0.000000 -0.000000 -1.946344 1.673901 -18.394908 -4.948328 -0.042348 -1.290718 5.406116 1.817597 -18.672882 -0.000005 -0.000004 0.000004 -0.000002 -0.000006 -0.000001 0.000005 -0.000003 0.000002 0.038000 -0.085200 0.016200 -0.000001 0.000001 -0.000001 
-0.009741 0.206187 0.000600 49.161349 13.035279 90.224012 -0.000001 -0.000000 0.000000 -0.000001 -0.000004 0.000000 0.000000 0.000002 -0.000001 0.000001 0.000002 0.000000 0.000924 0.155148 0.009274 -10.079490 0.038463 -1.985665 0.019937 0.078966 0.057518 -5.061779 5.638042 51.710696 0.177024 -0.020465 -0.095062 -85.836442 -6.576834 -40.854876 -11.082401 -46.004831 24.550639 -0.000001 -0.000000 -0.000004 0.021770 -0.038291 0.012954 0.000001 0.000001 0.000001 -0.000002 0.000000 -0.000000 0.000003 -0.000000 0.000005 0.000001 0.000004 0.000002 -0.009090 -0.002348 -0.024224 -0.000002 -0.000002 0.000003 0.000001 -0.000001 -0.000001 -0.000002 -0.000002 -0.000002 0.032823 -0.025104 0.012281 -0.000002 0.000002 0.000002 -0.000001 -0.000001 -0.000007 -0.000004 -0.000003 0.000001 -0.000002 0.000001 0.000003 0.039230 -0.011402 0.008390 0.000000 -0.000000 0.000008 0.000000 0.000001 0.000001 0.000001 0.000003 0.000006 -0.000001 -0.000004 0.000003 0.043417 0.002450 0.002889 -0.000000 0.000003 0.000002 -0.000001 -0.000003 -0.000002 0.000001 0.000001 -0.000000 -0.000001 0.000000 -0.000003 -0.016662 0.078957 0.057696 -1.215255 3.920152 -39.741684 -0.176972 -0.020537 -0.095144 -58.614559 11.851249 33.351144 18.570000 50.134613 297.552547 0.000003 0.000002 0.000002 -0.021773 -0.038278 0.012988 -0.000004 0.000003 0.000002 -0.000006 -0.000001 -0.000005 -0.000002 -0.000000 -0.000003 0.000001 0.000000 0.000006 0.009113 -0.002381 -0.024212 -0.000000 -0.000002 -0.000003 0.000003 -0.000002 0.000002 0.000002 0.000002 -0.000001 -0.032828 -0.025095 0.012286 -0.000003 0.000002 0.000002 0.000006 -0.000000 -0.000003 0.000000 -0.000003 -0.000001 -0.000003 0.000001 -0.000002 -0.039192 -0.011488 0.008390 -0.000004 0.000004 0.000001 -0.000002 0.000004 0.000002 -0.000002 -0.000005 0.000003 -0.000001 -0.000003 0.000001 -0.043421 0.002443 0.002845 -0.000004 0.000004 0.000002 -0.000007 0.000004 -0.000004 -0.000001 -0.000002 0.000004 -0.000003 -0.000002 -0.000003 -0.000000 0.000000 -0.000000 -2.061141 1.713141 -19.622107 11.804932 -0.652181 -8.962537 18.640437 -0.110734 1.119245 0.000000 0.000001 -0.000003 0.000002 0.000003 0.000001 0.000002 0.000001 -0.000002 -0.038000 -0.085200 0.016200 0.000002 0.000004 -0.000002 -0.000000 0.000000 0.000000 -1.954074 1.676217 -18.391092 -0.523334 -0.329095 -4.702136 6.157833 1.620779 -16.587323 0.000003 0.000002 0.000002 0.000001 0.000003 0.000001 0.000002 -0.000002 -0.000000 0.038000 -0.085200 0.016200 -0.000001 0.000002 -0.000001 
-0.010362 0.207923 0.000794 47.533721 13.581056 90.589530 0.000001 -0.000001 0.000001 0.000000 -0.000002 -0.000001 0.000001 -0.000002 -0.000001 0.000002 -0.000001 0.000001 0.000924 0.155147 0.009274 -11.113833 0.042155 -2.519985 0.019937 0.078966 0.057518 -3.556069 5.394555 50.087819 0.177025 -0.020465 -0.095062 -85.134606 1.104622 -42.505053 -20.840109 -57.390569 17.188009 -0.000003 -0.000000 0.000001 0.021770 -0.038291 0.012954 0.000002 -0.000000 -0.000009 -0.000002 0.000001 0.000007 0.000002 -0.000006 0.000008 -0.000002 -0.000001 0.000004 -0.009090 -0.002348 -0.024224 -0.000002 -0.000001 0.000002 0.000002 0.000000 0.000001 0.000000 0.000002 -0.000002 0.032823 -0.025104 0.012281 -0.000002 -0.000000 -0.000001 -0.000000 0.000003 -0.000003 -0.000001 -0.000003 0.000003 0.000001 0.000005 0.000001 0.039230 -0.011402 0.008390 0.000000 0.000001 0.000001 0.000002 0.000000 0.000001 -0.000000 0.000003 -0.000001 0.000000 -0.000005 0.000005 0.043417 0.002450 0.002889 -0.000001 0.000001 -0.000003 -0.000001 -0.000004 0.000001 0.000002 0.000003 -0.000000 -0.000001 -0.000003 0.000001 -0.016662 0.078957 0.057696 0.147581 3.590089 -39.097772 -0.176972 -0.020537 -0.095144 -55.868536 9.054899 34.022050 43.335160 30.870874 265.202285 -0.000003 0.000001 -0.000000 -0.021773 -0.038278 0.012988 0.000000 -0.000004 0.000002 -0.000003 0.000004 -0.000003 -0.000003 -0.000002 -0.000003 -0.000001 -0.000003 0.000003 0.009114 -0.002381 -0.024211 -0.000004 0.000000 -0.000002 -0.000001 -0.000004 0.000000 0.000003 -0.000002 -0.000008 -0.032828 -0.025095 0.012286 -0.000000 -0.000003 0.000002 0.000001 0.000000 -0.000001 0.000002 0.000001 0.000001 -0.000003 0.000003 -0.000002 -0.039192 -0.011488 0.008390 0.000002 0.000001 0.000005 -0.000001 0.000005 -0.000002 0.000003 -0.000003 -0.000002 -0.000000 0.000001 -0.000001 -0.043421 0.002442 0.002844 -0.000000 0.000001 0.000005 -0.000003 0.000007 -0.000003 -0.000004 -0.000004 -0.000002 -0.000006 0.000001 0.000002 0.000000 0.000000 -0.000000 -2.067987 1.738912 -19.857957 9.762162 -0.678814 -9.188729 19.702133 -0.162698 1.643715 0.000002 0.000002 0.000002 -0.000003 0.000002 -0.000002 0.000005 -0.000001 0.000000 -0.038000 -0.085200 0.016200 0.000005 -0.000002 0.000001 -0.000000 0.000000 -0.000000 -1.959682 1.701073 -18.627029 -1.285328 -0.379213 -5.415666 6.071861 1.531667 -15.650755 0.000003 0.000002 -0.000003 0.000001 0.000002 -0.000002 0.000002 0.000003 -0.000001 0.038000 -0.085200 0.016200 -0.000001 -0.000002 0.000003 
-0.010104 0.208250 0.001692 44.297496 13.421788 90.139673 0.000001 0.000000 -0.000000 0.000000 0.000004 0.000000 -0.000002 -0.000001 -0.000001 -0.000000 -0.000002 0.000001 0.000924 0.155147 0.009274 -6.311385 0.025736 1.468662 0.019937 0.078966 0.057518 -2.779711 5.126947 48.431881 0.177024 -0.020465 -0.095062 -84.508469 3.496183 -43.146698 17.672677 -60.570589 60.831666 -0.000002 0.000000 0.000003 0.021770 -0.038291 0.012954 0.000001 0.000003 -0.000001 -0.000001 -0.000000 0.000005 -0.000003 -0.000000 0.000009 -0.000003 0.000005 -0.000003 -0.009090 -0.002348 -0.024224 -0.000002 -0.000003 -0.000001 0.000000 0.000000 0.000001 -0.000000 0.000000 -0.000002 0.032823 -0.025104 0.012281 -0.000001 0.000001 0.000007 0.000001 0.000001 -0.000005 -0.000004 -0.000003 0.000003 -0.000003 0.000000 -0.000001 0.039230 -0.011402 0.008390 0.000001 0.000001 0.000006 0.000003 0.000002 -0.000004 -0.000000 0.000001 0.000001 -0.000001 -0.000005 0.000004 0.043417 0.002450 0.002889 0.000000 0.000003 -0.000000 -0.000002 -0.000003 -0.000000 -0.000000 0.000001 -0.000002 -0.000001 0.000005 -0.000001 -0.016662 0.078957 0.057696 0.199677 3.526438 -38.972025 -0.176972 -0.020537 -0.095144 -53.380503 7.682674 34.137880 45.898058 17.053376 257.008380 0.000003 -0.000003 -0.000003 -0.021773 -0.038278 0.012988 -0.000001 0.000001 -0.000005 0.000002 0.000004 -0.000001 -0.000002 0.000001 -0.000008 -0.000003 0.000000 0.000001 0.009113 -0.002381 -0.024212 0.000001 0.000002 -0.000004 -0.000000 -0.000004 0.000002 0.000003 -0.000002 0.000003 -0.032829 -0.025095 0.012286 -0.000001 -0.000001 0.000001 -0.000004 0.000003 0.000002 -0.000001 -0.000000 -0.000004 -0.000001 0.000003 -0.000006 -0.039192 -0.011488 0.008390 0.000000 -0.000001 0.000001 -0.000001 0.000003 -0.000005 0.000001 -0.000003 -0.000002 0.000000 0.000001 0.000003 -0.043421 0.002443 0.002844 -0.000001 0.000002 0.000002 -0.000004 0.000002 -0.000002 -0.000002 -0.000001 -0.000003 -0.000001 0.000002 -0.000001 -0.000000 0.000000 0.000000 -2.074789 1.642400 -18.857836 9.007218 -0.797698 -10.716347 23.777762 -0.172150 1.739140 0.000000 0.000001 0.000000 -0.000003 0.000004 -0.000001 0.000002 0.000001 0.000001 -0.038000 -0.085200 0.016200 0.000003 0.000001 -0.000001 -0.000000 0.000000 0.000000 -1.969999 1.607821 -17.626630 -0.399417 -0.428331 -5.992217 6.557093 1.475483 -15.062500 -0.000007 -0.000004 0.000002 0.000001 0.000001 -0.000001 -0.000003 -0.000004 0.000000 0.038000 -0.085200 0.016200 -0.000002 0.000001 0.000001 
